<?xml version="1.0" encoding="UTF-8" standalone="no" ?>
<!DOCTYPE svg PUBLIC "-//W3C//DTD SVG 1.1//EN" "http://www.w3.org/Graphics/SVG/1.1/DTD/svg11.dtd">
<svg xmlns="http://www.w3.org/2000/svg" xmlns:xlink="http://www.w3.org/1999/xlink" version="1.1" width="1280" height="1024" viewBox="0 0 1280 1024" xml:space="preserve">
<desc>Created with Fabric.js 4.4.0</desc>
<defs>
</defs>
<g transform="matrix(1 0 0 1 640 512)" id="background-logo"  >
<rect style="stroke: none; stroke-width: 0; stroke-dasharray: none; stroke-linecap: butt; stroke-dashoffset: 0; stroke-linejoin: miter; stroke-miterlimit: 4; fill: rgb(255,255,255); fill-rule: nonzero; opacity: 1;"  paint-order="stroke"  x="-640" y="-512" rx="0" ry="0" width="1280" height="1024" />
</g>
<g transform="matrix(1.9211538461538462 0 0 1.9211538461538462 640 391.9713477005945)" id="logo-logo"  >
<g style=""  paint-order="stroke"   >
		<g transform="matrix(1.6599974576239114 0 0 -1.6599974576239114 -105.94533458822588 4.952641641614946)"  >
<path style="stroke: none; stroke-width: 1; stroke-dasharray: none; stroke-linecap: butt; stroke-dashoffset: 0; stroke-linejoin: miter; stroke-miterlimit: 4; fill: rgb(16,117,157); fill-rule: nonzero; opacity: 1;"  paint-order="stroke"  transform=" translate(-101.155, -136.28799999999998)" d="M 97.157 128.545 L 105.15299999999999 128.545 L 105.15299999999999 144.03099999999998 L 97.157 144.03099999999998 z" stroke-linecap="round" />
</g>
		<g transform="matrix(1.6599974576239114 0 0 -1.6599974576239114 -105.94533458822588 -20.760018929578536)"  >
<path style="stroke: none; stroke-width: 1; stroke-dasharray: none; stroke-linecap: butt; stroke-dashoffset: 0; stroke-linejoin: miter; stroke-miterlimit: 4; fill: rgb(12,83,111); fill-rule: nonzero; opacity: 1;"  paint-order="stroke"  transform=" translate(-101.155, -151.7745)" d="M 97.157 144.031 L 105.15299999999999 144.031 L 105.15299999999999 159.518 L 97.157 159.518 z" stroke-linecap="round" />
</g>
		<g transform="matrix(1.6599974576239114 0 0 -1.6599974576239114 -126.37062565188333 -0.645323609325203)"  >
<path style="stroke: none; stroke-width: 1; stroke-dasharray: none; stroke-linecap: butt; stroke-dashoffset: 0; stroke-linejoin: miter; stroke-miterlimit: 4; fill: rgb(12,83,111); fill-rule: nonzero; opacity: 1;"  paint-order="stroke"  transform=" translate(-88.85300000000001, -139.65999999999997)" d="M 84.855 135.289 L 92.851 135.289 L 92.851 144.03099999999998 L 84.855 144.03099999999998 z" stroke-linecap="round" />
</g>
		<g transform="matrix(1.6599974576239114 0 0 -1.6599974576239114 -126.37062565188333 -15.161249026453305)"  >
<path style="stroke: none; stroke-width: 1; stroke-dasharray: none; stroke-linecap: butt; stroke-dashoffset: 0; stroke-linejoin: miter; stroke-miterlimit: 4; fill: rgb(16,117,157); fill-rule: nonzero; opacity: 1;"  paint-order="stroke"  transform=" translate(-88.85300000000001, -148.4025)" d="M 84.855 144.031 L 92.851 144.031 L 92.851 152.774 L 84.855 152.774 z" stroke-linecap="round" />
</g>
		<g transform="matrix(1.6599974576239114 0 0 -1.6599974576239114 -82.28534174092903 9.722619794205599)"  >
<path style="stroke: none; stroke-width: 1; stroke-dasharray: none; stroke-linecap: butt; stroke-dashoffset: 0; stroke-linejoin: miter; stroke-miterlimit: 4; fill: rgb(12,83,111); fill-rule: nonzero; opacity: 1;"  paint-order="stroke"  transform=" translate(-5.946, -10.6155)" d="M 0 0 L 7.996 0 L 7.996 16.061 L 11.892 16.061 L 11.892 21.231 L 0 21.231 Z" stroke-linecap="round" />
</g>
		<g transform="matrix(1.6599974576239114 0 0 -1.6599974576239114 -82.28534174092903 -25.529192429984164)"  >
<path style="stroke: none; stroke-width: 1; stroke-dasharray: none; stroke-linecap: butt; stroke-dashoffset: 0; stroke-linejoin: miter; stroke-miterlimit: 4; fill: rgb(16,117,157); fill-rule: nonzero; opacity: 1;"  paint-order="stroke"  transform=" translate(2.0500000000000007, -6.369)" d="M 0 0 L 0 16.985 L -7.996 16.985 L -7.996 -4.247 L 3.896 -4.247 L 3.896 0 z" stroke-linecap="round" />
</g>
		<g transform="matrix(1.6599974576239114 0 0 -1.6599974576239114 105.94372528385583 -19.760018929578536)"  >
<path style="stroke: none; stroke-width: 1; stroke-dasharray: none; stroke-linecap: butt; stroke-dashoffset: 0; stroke-linejoin: miter; stroke-miterlimit: 4; fill: rgb(16,117,157); fill-rule: nonzero; opacity: 1;"  paint-order="stroke"  transform=" translate(-228.77300000000002, -151.7745)" d="M 224.775 144.031 L 232.77100000000002 144.031 L 232.77100000000002 159.518 L 224.775 159.518 z" stroke-linecap="round" />
</g>
		<g transform="matrix(1.6599974576239114 0 0 -1.6599974576239114 105.94372528385583 4.952641641614946)"  >
<path style="stroke: none; stroke-width: 1; stroke-dasharray: none; stroke-linecap: butt; stroke-dashoffset: 0; stroke-linejoin: miter; stroke-miterlimit: 4; fill: rgb(12,83,111); fill-rule: nonzero; opacity: 1;"  paint-order="stroke"  transform=" translate(-228.77300000000002, -136.28799999999998)" d="M 224.775 128.545 L 232.77100000000002 128.545 L 232.77100000000002 144.03099999999998 L 224.775 144.03099999999998 z" stroke-linecap="round" />
</g>
		<g transform="matrix(1.6599974576239114 0 0 -1.6599974576239114 126.37062565188324 -0.645323609325203)"  >
<path style="stroke: none; stroke-width: 1; stroke-dasharray: none; stroke-linecap: butt; stroke-dashoffset: 0; stroke-linejoin: miter; stroke-miterlimit: 4; fill: rgb(16,117,157); fill-rule: nonzero; opacity: 1;"  paint-order="stroke"  transform=" translate(-241.07600000000002, -139.65999999999997)" d="M 237.078 135.289 L 245.074 135.289 L 245.074 144.03099999999998 L 237.078 144.03099999999998 z" stroke-linecap="round" />
</g>
		<g transform="matrix(1.6599974576239114 0 0 -1.6599974576239114 126.37062565188324 -15.161249026453305)"  >
<path style="stroke: none; stroke-width: 1; stroke-dasharray: none; stroke-linecap: butt; stroke-dashoffset: 0; stroke-linejoin: miter; stroke-miterlimit: 4; fill: rgb(12,83,111); fill-rule: nonzero; opacity: 1;"  paint-order="stroke"  transform=" translate(-241.07600000000002, -148.4025)" d="M 245.074 152.774 L 237.078 152.774 L 237.078 144.031 L 245.074 144.031 z" stroke-linecap="round" />
</g>
		<g transform="matrix(1.6599974576239114 0 0 -1.6599974576239114 82.28534174092891 9.722619794205599)"  >
<path style="stroke: none; stroke-width: 1; stroke-dasharray: none; stroke-linecap: butt; stroke-dashoffset: 0; stroke-linejoin: miter; stroke-miterlimit: 4; fill: rgb(16,117,157); fill-rule: nonzero; opacity: 1;"  paint-order="stroke"  transform=" translate(-5.946, 5.445)" d="M 0 0 L 3.897 0 L 3.897 -16.061 L 11.892 -16.061 L 11.892 5.171 L 0 5.171 Z" stroke-linecap="round" />
</g>
		<g transform="matrix(1.6599974576239114 0 0 -1.6599974576239114 82.28534174092897 -24.529192429984136)"  >
<path style="stroke: none; stroke-width: 1; stroke-dasharray: none; stroke-linecap: butt; stroke-dashoffset: 0; stroke-linejoin: miter; stroke-miterlimit: 4; fill: rgb(12,83,111); fill-rule: nonzero; opacity: 1;"  paint-order="stroke"  transform=" translate(-2.0485, 10.616)" d="M 0 0 L 0 -16.985 L -3.897 -16.985 L -3.897 -21.232 L 7.994 -21.232 L 7.994 0 Z" stroke-linecap="round" />
</g>
		<g transform="matrix(1.6599974576239114 0 0 -1.6599974576239114 -58.45959054352522 10.023559711389964)"  >
<path style="stroke: none; stroke-width: 1; stroke-dasharray: none; stroke-linecap: butt; stroke-dashoffset: 0; stroke-linejoin: miter; stroke-miterlimit: 4; fill: rgb(12,83,111); fill-rule: nonzero; opacity: 1;"  paint-order="stroke"  transform=" translate(-5.187, 2.5365)" d="M 0 0 L 10.374 -5.988 L 10.374 0.915 L 0 0.915 Z" stroke-linecap="round" />
</g>
		<g transform="matrix(1.6599974576239114 0 0 -1.6599974576239114 -58.46039519571019 -24.95404878365619)"  >
<path style="stroke: none; stroke-width: 1; stroke-dasharray: none; stroke-linecap: butt; stroke-dashoffset: 0; stroke-linejoin: miter; stroke-miterlimit: 4; fill: rgb(12,83,111); fill-rule: nonzero; opacity: 1;"  paint-order="stroke"  transform=" translate(5.187, 3.452)" d="M 0 0 L -10.374 -5.989 L -10.374 -6.904 L 0 -6.904 Z" stroke-linecap="round" />
</g>
		<g transform="matrix(1.6599974576239114 0 0 -1.6599974576239114 59.848420214809096 10.023559711389964)"  >
<path style="stroke: none; stroke-width: 1; stroke-dasharray: none; stroke-linecap: butt; stroke-dashoffset: 0; stroke-linejoin: miter; stroke-miterlimit: 4; fill: rgb(12,83,111); fill-rule: nonzero; opacity: 1;"  paint-order="stroke"  transform=" translate(-5.111, 3.4515)" d="M 0 0 L 0 -6.903 L 10.222 -1.0029999999999992 L 10.222 0 Z" stroke-linecap="round" />
</g>
		<g transform="matrix(1.6599974576239114 0 0 -1.6599974576239114 -39.72245976396613 3.5155328392318665)"  >
<path style="stroke: none; stroke-width: 1; stroke-dasharray: none; stroke-linecap: butt; stroke-dashoffset: 0; stroke-linejoin: miter; stroke-miterlimit: 4; fill: rgb(16,117,157); fill-rule: nonzero; opacity: 1;"  paint-order="stroke"  transform=" translate(-6.099, 4.361)" d="M 0 0 L -6.435 0 L -10.373999999999999 0 L -10.373999999999999 -4.829 L 0 -4.829 L 12.761 -4.829 C 16.023 -4.829 18.933999999999997 -6.353 20.83 -8.722 C 21.136 -7.427 21.534999999999997 -6.151 22.026 -4.898 C 22.036 -4.875 22.047 -4.853 22.055 -4.829 C 22.219 -4.423 22.392 -4.019 22.572 -3.617 C 19.927 -1.364 16.501 0 12.761 0 Z" stroke-linecap="round" />
</g>
		<g transform="matrix(1.6599974576239114 0 0 -1.6599974576239114 -35.03938404735379 -12.706255210064313)"  >
<path style="stroke: none; stroke-width: 1; stroke-dasharray: none; stroke-linecap: butt; stroke-dashoffset: 0; stroke-linejoin: miter; stroke-miterlimit: 4; fill: rgb(16,117,157); fill-rule: nonzero; opacity: 1;"  paint-order="stroke"  transform=" translate(-8.919499999999998, -0.30100000000000016)" d="M 0 0 L 12.761 0 C 17.415 0 21.703 -1.579 25.125999999999998 -4.226 C 26.046 -2.909 27.08 -1.662 28.212999999999997 -0.5150000000000001 C 23.95 2.827 18.586 4.828 12.761 4.828 L 0 4.828 L -10.374 4.828 L -10.374 0 L -6.4350000000000005 0 z" stroke-linecap="round" />
</g>
		<g transform="matrix(1.6599974576239114 0 0 -1.6599974576239114 28.416291912742793 24.11865203577102)"  >
<path style="stroke: none; stroke-width: 1; stroke-dasharray: none; stroke-linecap: butt; stroke-dashoffset: 0; stroke-linejoin: miter; stroke-miterlimit: 4; fill: rgb(16,117,157); fill-rule: nonzero; opacity: 1;"  paint-order="stroke"  transform=" translate(-16.657500000000002, 11.441500000000001)" d="M 0 0 C 0.095 0.17 0.2 0.332 0.3 0.499 C 1.093 1.83 2.026 3.068 3.093 4.1819999999999995 C 6.786 8.032 11.974 10.437 17.716 10.437 L 30.478 10.437 L 36.913000000000004 10.437 L 40.699000000000005 10.437 L 40.699000000000005 15.265 L 30.478 15.265 L 17.716 15.265 C 10.853000000000002 15.265 4.626000000000001 12.492 0.08900000000000219 8.011000000000001 L -0.121 7.799 C -1.123 6.785 -2.051 5.669 -2.879 4.483 L -3.146 4.1 C -3.868 3.024 -4.504 1.887 -5.054 0.7 C -5.084 0.634 -5.11 0.565 -5.141 0.499 C -5.285 0.179 -5.426 -0.14400000000000002 -5.558 -0.46799999999999997 C -5.585 -0.538 -5.617999999999999 -0.606 -5.645 -0.6749999999999999 C -5.646 -0.6809999999999999 -5.648 -0.6849999999999999 -5.6499999999999995 -0.69 C -5.842 -1.181 -6.015999999999999 -1.6829999999999998 -6.177999999999999 -2.1870000000000003 C -6.212999999999999 -2.297 -6.247999999999999 -2.406 -6.281999999999999 -2.5170000000000003 C -6.436999999999999 -3.0220000000000002 -6.5809999999999995 -3.5310000000000006 -6.702999999999999 -4.051 C -7.145999999999999 -5.909000000000001 -7.3839999999999995 -7.845000000000001 -7.3839999999999995 -9.836 L -7.3839999999999995 -38.148 L 7.382 -38.148 L 7.382 -9.836000000000002 C 7.382 -4.138000000000002 12.021 0.4989999999999988 17.716 0.4989999999999988 L 30.478 0.4989999999999988 L 40.699 0.4989999999999988 L 40.699 5.328 L 36.913 5.328 L 30.478 5.328 L 17.716 5.328 C 13.347 5.328 9.407 3.466 6.639 0.499 C 6.289 0.123 5.955 -0.266 5.645 -0.675 C 3.706 -3.223 2.554 -6.397 2.554 -9.836 L 2.554 -33.321 L -2.555 -33.321 L -2.555 -9.835999999999999 C -2.555 -6.268999999999998 -1.6270000000000002 -2.9159999999999986 0 1.7763568394002505e-15" stroke-linecap="round" />
</g>
		<g transform="matrix(1.6599974576239114 0 0 -1.6599974576239114 59.84761556262407 -24.95404878365619)"  >
<path style="stroke: none; stroke-width: 1; stroke-dasharray: none; stroke-linecap: butt; stroke-dashoffset: 0; stroke-linejoin: miter; stroke-miterlimit: 4; fill: rgb(12,83,111); fill-rule: nonzero; opacity: 1;"  paint-order="stroke"  transform=" translate(5.111, -2.4494999999999996)" d="M 0 0 L -10.222 5.901 L -10.222 -1.002 L 0 -1.002 Z" stroke-linecap="round" />
</g>
		<g transform="matrix(1.6599974576239114 0 0 -1.6599974576239114 0.6308473130281413 -56.73843207680969)"  >
<path style="stroke: none; stroke-width: 1; stroke-dasharray: none; stroke-linecap: butt; stroke-dashoffset: 0; stroke-linejoin: miter; stroke-miterlimit: 4; fill: rgb(16,117,157); fill-rule: nonzero; opacity: 1;"  paint-order="stroke"  transform=" translate(14.1135, -7.056)" d="M 0 0 C 0 7.793 -6.318 14.112 -14.113 14.112 C -21.908 14.112 -28.227 7.793 -28.227 0 L -28.227 0 z" stroke-linecap="round" />
</g>
		<g transform="matrix(1.6599974576239114 0 0 -1.6599974576239114 0.631651965213166 -34.30535114567857)"  >
<path style="stroke: none; stroke-width: 1; stroke-dasharray: none; stroke-linecap: butt; stroke-dashoffset: 0; stroke-linejoin: miter; stroke-miterlimit: 4; fill: rgb(12,83,111); fill-rule: nonzero; opacity: 1;"  paint-order="stroke"  transform=" translate(-14.1135, 7.0565)" d="M 0 0 C 0 -7.794 6.319 -14.113 14.113 -14.113 C 21.908 -14.113 28.227 -7.794 28.227 0 z" stroke-linecap="round" />
</g>
</g>
</g>
<g transform="matrix(1.9211538461538462 0 0 1.9211538461538462 641.9531230468752 608.3971881652058)" id="text-logo"  >
<g style=""  paint-order="stroke"   >
		<g transform="matrix(1 0 0 1 -5.684342e-14 0)" id="text-logo-path-0"  >
<filter id="SVGID_1000785" y="-33.12779450723869%" height="166.25558901447738%" x="-20.604568775465626%" width="141.20913755093125%" >
	<feGaussianBlur in="SourceAlpha" stdDeviation="0"></feGaussianBlur>
	<feOffset dx="2.948240090435666" dy="4.913733484059443" result="oBlur" ></feOffset>
	<feFlood flood-color="rgb(46,57,115)" flood-opacity="1"/>
	<feComposite in2="oBlur" operator="in" />
	<feMerge>
		<feMergeNode></feMergeNode>
		<feMergeNode in="SourceGraphic"></feMergeNode>
	</feMerge>
</filter>
<path style="stroke: rgb(255,255,255); stroke-width: 7.084140512904138; stroke-dasharray: none; stroke-linecap: butt; stroke-dashoffset: 0; stroke-linejoin: miter; stroke-miterlimit: 4; fill: rgb(16,117,157); fill-rule: nonzero; opacity: 1;filter: url(#SVGID_1000785);"  paint-order="stroke"  transform=" translate(-246.95, 18.205000000000002)" d="M 12.49 0 L 3.12 0 L 3.12 -36.41 L 13 -36.41 L 25.49 -14.55 L 25.49 -36.41 L 34.84 -36.41 L 34.84 0 L 24.96 0 L 12.49 -21.84 L 12.49 0 Z M 54.29 0 L 44.16 0 L 57.92 -36.41 L 68.33 -36.41 L 82.12 0 L 71.96 0 L 69.63 -6.5 L 56.63 -6.5 L 54.29 0 Z M 63.13 -25.49 L 58.96 -13.25 L 67.29 -13.25 L 63.13 -25.49 Z M 96.11 -29.12 L 85.17 -29.12 L 85.17 -36.41 L 116.37 -36.41 L 116.37 -29.12 L 105.46 -29.12 L 105.46 0 L 96.11 0 L 96.11 -29.12 Z M 126.71 -9.88 L 126.71 -9.88 L 126.71 -36.41 L 136.08 -36.41 L 136.08 -9.88 Q 136.08 -6.75 139.18 -6.75 L 139.18 -6.75 L 147 -6.75 Q 150.12 -6.75 150.1 -9.88 L 150.1 -9.88 L 150.1 -36.41 L 159.47 -36.41 L 159.47 -9.88 Q 159.47 -4.42 157 -1.96 Q 154.54 0.51 149.08 0.51 L 149.08 0.51 L 137.1 0.51 Q 131.64 0.51 129.18 -1.96 Q 126.71 -4.42 126.71 -9.88 Z M 181.79 0 L 172.42 0 L 172.42 -36.41 L 194.26 -36.41 Q 199.72 -36.41 202.19 -33.93 Q 204.67 -31.46 204.67 -26 L 204.67 -26 L 204.67 -21.33 Q 204.67 -17.01 203.23 -14.61 Q 201.8 -12.21 198.68 -11.45 L 198.68 -11.45 L 205.18 0 L 195.04 0 L 189.05 -10.92 L 181.79 -10.92 L 181.79 0 Z M 181.79 -29.12 L 181.79 -18.21 L 192.18 -18.21 Q 195.3 -18.21 195.3 -21.33 L 195.3 -21.33 L 195.3 -26 Q 195.3 -29.12 192.18 -29.12 L 192.18 -29.12 L 181.79 -29.12 Z M 223.06 0 L 212.92 0 L 226.69 -36.41 L 237.1 -36.41 L 250.88 0 L 240.73 0 L 238.39 -6.5 L 225.39 -6.5 L 223.06 0 Z M 231.89 -25.49 L 227.73 -13.25 L 236.06 -13.25 L 231.89 -25.49 Z M 288.52 0 L 260.18 0 L 260.18 -36.41 L 269.55 -36.41 L 269.55 -7.29 L 288.52 -7.29 L 288.52 0 Z M 330.52 0 L 321.15 0 L 321.15 -36.41 L 331.03 -36.41 L 341.44 -17.16 L 351.83 -36.41 L 361.7 -36.41 L 361.7 0 L 352.36 0 L 352.36 -20.29 L 345.07 -7.29 L 337.79 -7.29 L 330.52 -20.29 L 330.52 0 Z M 373.62 -9.88 L 373.62 -9.88 L 373.62 -26.51 Q 373.62 -31.97 376.08 -34.44 Q 378.54 -36.92 384.03 -36.92 L 384.03 -36.92 L 397.03 -36.92 Q 402.49 -36.92 404.95 -34.46 Q 407.41 -31.99 407.41 -26.51 L 407.41 -26.51 L 407.41 -9.88 Q 407.41 -4.42 404.95 -1.96 Q 402.49 0.51 397.03 0.51 L 397.03 0.51 L 384.03 0.51 Q 378.57 0.51 376.09 -1.96 Q 373.62 -4.42 373.62 -9.88 Z M 382.99 -26.51 L 382.99 -9.88 Q 382.99 -6.75 386.08 -6.75 L 386.08 -6.75 L 394.94 -6.75 Q 398.07 -6.75 398.04 -9.88 L 398.04 -9.88 L 398.04 -26.51 Q 398.04 -29.63 394.94 -29.63 L 394.94 -29.63 L 386.08 -29.63 Q 382.96 -29.63 382.99 -26.51 L 382.99 -26.51 Z M 428.41 0 L 414.65 -36.41 L 424.78 -36.41 L 433.62 -10.92 L 442.46 -36.41 L 452.61 -36.41 L 438.82 0 L 428.41 0 Z M 490.78 0 L 461.91 0 L 461.91 -36.41 L 490.78 -36.41 L 490.78 -29.12 L 471.28 -29.12 L 471.28 -22.09 L 486.61 -22.09 L 486.61 -14.83 L 471.28 -14.83 L 471.28 -7.29 L 490.78 -7.29 L 490.78 0 Z" stroke-linecap="round" />
</g>
</g>
</g>
<g transform="matrix(1.9211538461538462 0 0 1.9211538461538462 650.3301214118954 720.9783047183491)" id="tagline-720ef642-9ae9-489b-88f9-405de6dd2035-logo"  >
<g style=""  paint-order="stroke"   >
		<g transform="matrix(1 0 0 1 -5.684342e-14 0)" id="tagline-720ef642-9ae9-489b-88f9-405de6dd2035-logo-path-0"  >
<path style="stroke: none; stroke-width: 0; stroke-dasharray: none; stroke-linecap: butt; stroke-dashoffset: 0; stroke-linejoin: miter; stroke-miterlimit: 4; fill: rgb(12,83,111); fill-rule: nonzero; opacity: 1;"  paint-order="stroke"  transform=" translate(-250.32500000000002, 13.825)" d="M 7.35 0 L 7.35 0 L 3.7 0 Q 2.8 0 2.8 -0.9 L 2.8 -0.9 L 2.8 -26.75 Q 2.8 -27.65 3.7 -27.65 L 3.7 -27.65 L 14.19 -27.65 Q 17.54 -27.65 19.39 -25.82 Q 21.24 -23.99 21.24 -20.64 L 21.24 -20.64 L 21.24 -16.51 Q 21.24 -13.16 19.39 -11.33 Q 17.54 -9.5 14.19 -9.5 L 14.19 -9.5 L 8.77 -9.5 Q 8.26 -9.5 8.26 -9.03 L 8.26 -9.03 L 8.26 -0.9 Q 8.26 0 7.35 0 Z M 8.73 -14.28 L 8.73 -14.28 L 13.29 -14.28 Q 14.66 -14.28 15.22 -14.86 Q 15.78 -15.44 15.78 -16.77 L 15.78 -16.77 L 15.78 -20.38 Q 15.78 -21.76 15.22 -22.34 Q 14.66 -22.92 13.29 -22.92 L 13.29 -22.92 L 8.73 -22.92 Q 8.26 -22.92 8.26 -22.45 L 8.26 -22.45 L 8.26 -14.75 Q 8.26 -14.28 8.73 -14.28 Z M 43.26 0 L 43.26 0 L 39.6 0 Q 38.7 0 38.7 -0.9 L 38.7 -0.9 L 38.7 -26.75 Q 38.7 -27.65 39.6 -27.65 L 39.6 -27.65 L 49.84 -27.65 Q 53.19 -27.65 55.08 -25.8 Q 56.98 -23.95 56.98 -20.6 L 56.98 -20.6 L 56.98 -17.24 Q 56.98 -12.38 53.15 -10.79 L 53.15 -10.79 L 53.15 -10.62 L 57.75 -1.03 Q 58.14 0 57.02 0 L 57.02 0 L 53.54 0 Q 52.76 0 52.42 -0.17 Q 52.07 -0.34 51.86 -0.9 L 51.86 -0.9 L 47.56 -10.19 L 44.68 -10.19 Q 44.16 -10.19 44.16 -9.72 L 44.16 -9.72 L 44.16 -0.9 Q 44.16 0 43.26 0 Z M 44.63 -14.58 L 44.63 -14.58 L 48.85 -14.58 Q 50.22 -14.58 50.87 -15.16 Q 51.51 -15.74 51.51 -17.03 L 51.51 -17.03 L 51.51 -20.38 Q 51.51 -21.72 50.87 -22.32 Q 50.22 -22.92 48.85 -22.92 L 48.85 -22.92 L 44.63 -22.92 Q 44.16 -22.92 44.16 -22.45 L 44.16 -22.45 L 44.16 -15.05 Q 44.16 -14.58 44.63 -14.58 Z M 90.3 0 L 90.3 0 L 76.24 0 Q 75.34 0 75.34 -0.9 L 75.34 -0.9 L 75.34 -26.75 Q 75.34 -27.65 76.24 -27.65 L 76.24 -27.65 L 90.3 -27.65 Q 91.16 -27.65 91.16 -26.75 L 91.16 -26.75 L 91.16 -23.82 Q 91.16 -22.92 90.3 -22.92 L 90.3 -22.92 L 81.31 -22.92 Q 80.8 -22.92 80.8 -22.45 L 80.8 -22.45 L 80.8 -16.86 Q 80.8 -16.38 81.31 -16.38 L 81.31 -16.38 L 88.67 -16.38 Q 89.57 -16.38 89.57 -15.48 L 89.57 -15.48 L 89.57 -12.56 Q 89.57 -11.65 88.67 -11.65 L 88.67 -11.65 L 81.31 -11.65 Q 80.8 -11.65 80.8 -11.18 L 80.8 -11.18 L 80.8 -5.2 Q 80.8 -4.73 81.31 -4.73 L 81.31 -4.73 L 90.3 -4.73 Q 91.16 -4.73 91.16 -3.83 L 91.16 -3.83 L 91.16 -0.9 Q 91.16 0 90.3 0 Z M 127.41 -27.65 L 127.41 -27.65 L 133.77 -27.65 Q 134.68 -27.65 134.68 -26.75 L 134.68 -26.75 L 134.68 -0.9 Q 134.68 0 133.77 0 L 133.77 0 L 130.25 0 Q 129.34 0 129.34 -0.9 L 129.34 -0.9 L 129.34 -21.29 L 129.17 -21.29 L 124.79 -6.88 Q 124.53 -6.02 123.71 -6.02 L 123.71 -6.02 L 120.1 -6.02 Q 119.28 -6.02 119.02 -6.88 L 119.02 -6.88 L 114.55 -21.33 L 114.38 -21.33 L 114.38 -0.9 Q 114.38 -0.39 114.21 -0.19 Q 114.04 0 113.48 0 L 113.48 0 L 109.95 0 Q 109.05 0 109.05 -0.9 L 109.05 -0.9 L 109.05 -26.75 Q 109.05 -27.65 109.95 -27.65 L 109.95 -27.65 L 116.36 -27.65 Q 116.96 -27.65 117.17 -27.05 L 117.17 -27.05 L 121.73 -11.87 L 121.99 -11.87 L 126.59 -27.05 Q 126.72 -27.65 127.41 -27.65 Z M 159.06 -26.75 L 159.06 -26.75 L 159.06 -0.9 Q 159.06 0 158.15 0 L 158.15 0 L 154.5 0 Q 153.6 0 153.6 -0.9 L 153.6 -0.9 L 153.6 -26.75 Q 153.6 -27.65 154.5 -27.65 L 154.5 -27.65 L 158.15 -27.65 Q 159.06 -27.65 159.06 -26.75 Z M 192.12 -27.65 L 192.12 -27.65 L 195.74 -27.65 Q 196.68 -27.65 196.68 -26.79 L 196.68 -26.79 L 196.68 -7.01 Q 196.68 -3.66 194.81 -1.83 Q 192.94 0 189.59 0 L 189.59 0 L 184.86 0 Q 181.46 0 179.61 -1.81 Q 177.76 -3.61 177.76 -7.01 L 177.76 -7.01 L 177.76 -26.75 Q 177.76 -27.65 178.67 -27.65 L 178.67 -27.65 L 182.32 -27.65 Q 183.22 -27.65 183.22 -26.75 L 183.22 -26.75 L 183.22 -7.27 Q 183.22 -5.89 183.8 -5.31 Q 184.38 -4.73 185.72 -4.73 L 185.72 -4.73 L 188.68 -4.73 Q 190.06 -4.73 190.64 -5.31 Q 191.22 -5.89 191.22 -7.27 L 191.22 -7.27 L 191.22 -26.75 Q 191.22 -27.65 192.12 -27.65 Z M 233.53 -27.65 L 233.53 -27.65 L 239.9 -27.65 Q 240.8 -27.65 240.8 -26.75 L 240.8 -26.75 L 240.8 -0.9 Q 240.8 0 239.9 0 L 239.9 0 L 236.37 0 Q 235.47 0 235.47 -0.9 L 235.47 -0.9 L 235.47 -21.29 L 235.3 -21.29 L 230.91 -6.88 Q 230.65 -6.02 229.84 -6.02 L 229.84 -6.02 L 226.22 -6.02 Q 225.41 -6.02 225.15 -6.88 L 225.15 -6.88 L 220.68 -21.33 L 220.5 -21.33 L 220.5 -0.9 Q 220.5 -0.39 220.33 -0.19 Q 220.16 0 219.6 0 L 219.6 0 L 216.08 0 Q 215.17 0 215.17 -0.9 L 215.17 -0.9 L 215.17 -26.75 Q 215.17 -27.65 216.08 -27.65 L 216.08 -27.65 L 222.48 -27.65 Q 223.08 -27.65 223.3 -27.05 L 223.3 -27.05 L 227.86 -11.87 L 228.12 -11.87 L 232.72 -27.05 Q 232.85 -27.65 233.53 -27.65 Z M 286.64 0 L 286.64 0 L 282.98 0 Q 282.08 0 282.08 -0.9 L 282.08 -0.9 L 282.08 -26.75 Q 282.08 -27.65 282.98 -27.65 L 282.98 -27.65 L 296.7 -27.65 Q 297.56 -27.65 297.56 -26.75 L 297.56 -26.75 L 297.56 -23.82 Q 297.56 -22.92 296.7 -22.92 L 296.7 -22.92 L 288.06 -22.92 Q 287.54 -22.92 287.54 -22.45 L 287.54 -22.45 L 287.54 -15.78 Q 287.54 -15.27 288.06 -15.27 L 288.06 -15.27 L 295.41 -15.27 Q 296.31 -15.27 296.31 -14.36 L 296.31 -14.36 L 296.31 -11.48 Q 296.31 -10.54 295.41 -10.54 L 295.41 -10.54 L 288.06 -10.54 Q 287.54 -10.54 287.54 -10.06 L 287.54 -10.06 L 287.54 -0.9 Q 287.54 0 286.64 0 Z M 320.22 -26.75 L 320.22 -26.75 L 320.22 -0.9 Q 320.22 0 319.32 0 L 319.32 0 L 315.66 0 Q 314.76 0 314.76 -0.9 L 314.76 -0.9 L 314.76 -26.75 Q 314.76 -27.65 315.66 -27.65 L 315.66 -27.65 L 319.32 -27.65 Q 320.22 -27.65 320.22 -26.75 Z M 347.7 0 L 347.7 0 L 344.09 0 Q 343.14 0 343.14 -0.9 L 343.14 -0.9 L 343.14 -22.45 Q 343.14 -22.92 342.67 -22.92 L 342.67 -22.92 L 337.77 -22.92 Q 336.86 -22.92 336.86 -23.82 L 336.86 -23.82 L 336.86 -26.75 Q 336.86 -27.65 337.77 -27.65 L 337.77 -27.65 L 354.02 -27.65 Q 354.92 -27.65 354.92 -26.75 L 354.92 -26.75 L 354.92 -23.82 Q 354.92 -22.92 354.02 -22.92 L 354.02 -22.92 L 349.12 -22.92 Q 348.6 -22.92 348.6 -22.45 L 348.6 -22.45 L 348.6 -0.9 Q 348.6 0 347.7 0 Z M 375.78 0 L 375.78 0 L 372.21 0 Q 371.31 0 371.31 -0.9 L 371.31 -0.9 L 371.31 -26.75 Q 371.31 -27.65 372.21 -27.65 L 372.21 -27.65 L 375.43 -27.65 Q 376.34 -27.65 376.64 -27.05 L 376.64 -27.05 L 385.32 -10.75 L 385.5 -10.75 L 385.5 -26.75 Q 385.5 -27.65 386.4 -27.65 L 386.4 -27.65 L 389.97 -27.65 Q 390.87 -27.65 390.87 -26.75 L 390.87 -26.75 L 390.87 -0.9 Q 390.87 0 389.97 0 L 389.97 0 L 386.83 0 Q 385.88 0 385.45 -0.86 L 385.45 -0.86 L 376.85 -16.86 L 376.68 -16.86 L 376.68 -0.9 Q 376.68 0 375.78 0 Z M 424.54 0 L 424.54 0 L 410.48 0 Q 409.58 0 409.58 -0.9 L 409.58 -0.9 L 409.58 -26.75 Q 409.58 -27.65 410.48 -27.65 L 410.48 -27.65 L 424.54 -27.65 Q 425.4 -27.65 425.4 -26.75 L 425.4 -26.75 L 425.4 -23.82 Q 425.4 -22.92 424.54 -22.92 L 424.54 -22.92 L 415.55 -22.92 Q 415.04 -22.92 415.04 -22.45 L 415.04 -22.45 L 415.04 -16.86 Q 415.04 -16.38 415.55 -16.38 L 415.55 -16.38 L 422.91 -16.38 Q 423.81 -16.38 423.81 -15.48 L 423.81 -15.48 L 423.81 -12.56 Q 423.81 -11.65 422.91 -11.65 L 422.91 -11.65 L 415.55 -11.65 Q 415.04 -11.65 415.04 -11.18 L 415.04 -11.18 L 415.04 -5.2 Q 415.04 -4.73 415.55 -4.73 L 415.55 -4.73 L 424.54 -4.73 Q 425.4 -4.73 425.4 -3.83 L 425.4 -3.83 L 425.4 -0.9 Q 425.4 0 424.54 0 Z M 442.6 -7.05 L 442.6 -7.05 L 442.6 -7.91 Q 442.6 -8.82 443.5 -8.82 L 443.5 -8.82 L 447.16 -8.82 Q 448.06 -8.82 448.06 -7.91 L 448.06 -7.91 L 448.06 -7.57 Q 448.06 -5.93 448.71 -5.33 Q 449.35 -4.73 451.07 -4.73 L 451.07 -4.73 L 453.09 -4.73 Q 454.77 -4.73 455.43 -5.38 Q 456.1 -6.02 456.1 -7.78 L 456.1 -7.78 L 456.1 -8.3 Q 456.1 -9.55 455.09 -10.21 Q 454.08 -10.88 452.58 -11.01 Q 451.07 -11.14 449.33 -11.5 Q 447.59 -11.87 446.08 -12.45 Q 444.58 -13.03 443.57 -14.73 Q 442.56 -16.43 442.56 -19.09 L 442.56 -19.09 L 442.56 -20.6 Q 442.56 -23.95 444.45 -25.8 Q 446.34 -27.65 449.69 -27.65 L 449.69 -27.65 L 453.99 -27.65 Q 457.39 -27.65 459.28 -25.8 Q 461.18 -23.95 461.18 -20.6 L 461.18 -20.6 L 461.18 -19.78 Q 461.18 -18.88 460.27 -18.88 L 460.27 -18.88 L 456.62 -18.88 Q 455.71 -18.88 455.71 -19.78 L 455.71 -19.78 L 455.71 -20.04 Q 455.71 -21.72 455.07 -22.32 Q 454.42 -22.92 452.7 -22.92 L 452.7 -22.92 L 451.03 -22.92 Q 449.26 -22.92 448.64 -22.25 Q 448.02 -21.59 448.02 -19.65 L 448.02 -19.65 L 448.02 -18.83 Q 448.02 -16.81 451.54 -16.51 L 451.54 -16.51 Q 455.2 -16.21 458.04 -15.05 L 458.04 -15.05 Q 459.54 -14.41 460.55 -12.75 Q 461.56 -11.09 461.56 -8.51 L 461.56 -8.51 L 461.56 -7.05 Q 461.56 -3.7 459.67 -1.85 Q 457.78 0 454.42 0 L 454.42 0 L 449.74 0 Q 446.38 0 444.49 -1.85 Q 442.6 -3.7 442.6 -7.05 Z M 478.89 -7.05 L 478.89 -7.05 L 478.89 -7.91 Q 478.89 -8.82 479.79 -8.82 L 479.79 -8.82 L 483.45 -8.82 Q 484.35 -8.82 484.35 -7.91 L 484.35 -7.91 L 484.35 -7.57 Q 484.35 -5.93 485 -5.33 Q 485.64 -4.73 487.36 -4.73 L 487.36 -4.73 L 489.38 -4.73 Q 491.06 -4.73 491.73 -5.38 Q 492.39 -6.02 492.39 -7.78 L 492.39 -7.78 L 492.39 -8.3 Q 492.39 -9.55 491.38 -10.21 Q 490.37 -10.88 488.87 -11.01 Q 487.36 -11.14 485.62 -11.5 Q 483.88 -11.87 482.37 -12.45 Q 480.87 -13.03 479.86 -14.73 Q 478.85 -16.43 478.85 -19.09 L 478.85 -19.09 L 478.85 -20.6 Q 478.85 -23.95 480.74 -25.8 Q 482.63 -27.65 485.99 -27.65 L 485.99 -27.65 L 490.29 -27.65 Q 493.68 -27.65 495.58 -25.8 Q 497.47 -23.95 497.47 -20.6 L 497.47 -20.6 L 497.47 -19.78 Q 497.47 -18.88 496.56 -18.88 L 496.56 -18.88 L 492.91 -18.88 Q 492.01 -18.88 492.01 -19.78 L 492.01 -19.78 L 492.01 -20.04 Q 492.01 -21.72 491.36 -22.32 Q 490.72 -22.92 489 -22.92 L 489 -22.92 L 487.32 -22.92 Q 485.56 -22.92 484.93 -22.25 Q 484.31 -21.59 484.31 -19.65 L 484.31 -19.65 L 484.31 -18.83 Q 484.31 -16.81 487.84 -16.51 L 487.84 -16.51 Q 491.49 -16.21 494.33 -15.05 L 494.33 -15.05 Q 495.83 -14.41 496.84 -12.75 Q 497.85 -11.09 497.85 -8.51 L 497.85 -8.51 L 497.85 -7.05 Q 497.85 -3.7 495.96 -1.85 Q 494.07 0 490.72 0 L 490.72 0 L 486.03 0 Q 482.68 0 480.78 -1.85 Q 478.89 -3.7 478.89 -7.05 Z" stroke-linecap="round" />
</g>
</g>
</g>
</svg>